<svg width="160" height="40" viewBox="0 0 160 40" fill="none" xmlns="http://www.w3.org/2000/svg">
  <!-- Icône Airtable -->
  <g transform="translate(0,4)">
    <!-- Haut -->
    <path d="M18.65 0.78L4.36 6.7C3.56 7.03 3.59 8.18 4.42 8.46L18.77 13.2C19.21 13.34 19.69 13.31 20.11 13.12L34.77 6.56C35.61 6.18 35.57 4.98 34.71 4.65L20.06 0.75C19.6 0.58 19.1 0.59 18.65 0.78Z" fill="#FCB400"></path>
    <!-- Gauche -->
    <path d="M21.07 15.64V29.26C21.07 30.16 20.17 30.77 19.34 30.45L5.77 25.19C5.15 24.95 4.74 24.35 4.74 23.68V10.94C4.74 10.04 5.64 9.43 6.47 9.75L20.04 15.01C20.66 15.25 21.07 15.85 21.07 16.52V15.64Z" fill="#18BFFF"></path>
    <!-- Droite -->
    <path d="M24.06 16.2L37.83 10.11C38.66 9.74 39.57 10.35 39.57 11.26V23.29C39.57 23.95 39.18 24.54 38.58 24.79L24.82 30.52C23.99 30.87 23.1 30.26 23.1 29.36V17.69C23.1 17.03 23.48 16.45 24.06 16.2Z" fill="#F82B60"></path>
  </g>

  <!-- Texte -->
  <text x="52" y="25" fill="white" font-family="Inter, Arial, Helvetica, sans-serif" font-size="18" font-weight="600">
    Airtable
  </text>
</svg>